<?xml version="1.0" encoding="UTF-8" standalone="no"?>
<svg xmlns="http://www.w3.org/2000/svg" version="1.1" viewBox="0 0 96 96" height="96" width="96">
  <path style="fill:#058b00;fill-opacity:1;stroke:none" d="m 50.373332,5.991485 a 5.1421949,13.379087 42.426425 0 1 -4.389039,6.09493 5.1421949,13.379087 42.426425 0 1 -1.545247,1.57394 8.9002294,8.7099988 20.058174 0 0 -1.579671,-4.23605 3.4927568,9.3858845 35.807873 0 1 -2.562663,4.58985 3.4927568,9.3858845 35.807873 0 1 -1.795776,2.2146 36.229167,31.822917 0 0 0 -25.192506,21.58565 36.229167,31.822917 0 0 1 0.158733,-0.50488 A 12.729167,12.729167 0 0 0 1,50.025245 a 12.729167,12.729167 0 0 0 12.729167,12.7292 12.729167,12.729167 0 0 0 2.70992,-0.3022 36.229167,31.822917 0 0 0 6.240275,7.1659 A 25.458333,22.520833 0 0 0 48,90.008545 a 25.458333,22.520833 0 0 0 25.335937,-20.3693 36.229167,31.822917 0 0 0 6.397095,-7.4126 36.229167,31.822917 0 0 1 -0.143432,0.2256 12.729167,12.729167 0 0 0 2.681233,0.3022 A 12.729167,12.729167 0 0 0 95,50.025245 12.729167,12.729167 0 0 0 82.530924,37.305695 36.229167,31.822917 0 0 0 55.955729,15.894075 a 10.09823,9.2598524 82.990913 0 0 0.04016,-6.07581 3.8801008,10.191323 50.780433 0 1 -4.067749,4.08305 3.8801008,10.191323 50.780433 0 1 -0.06502,0.0497 13.084488,12.433518 45.205762 0 0 -1.489786,-7.95956 z m -14.557454,25.54248 a 14.6875,14.6875 0 0 1 12.180297,6.50228 14.6875,14.6875 0 0 1 12.187947,-6.50228 14.6875,14.6875 0 0 1 14.6875,14.68748 14.6875,14.6875 0 0 1 -11.128458,14.2343 17.625,15.666667 0 0 1 1.881836,7.032 17.625,15.666667 0 0 1 -17.625,15.6667 17.625,15.666667 0 0 1 -17.625,-15.6667 17.625,15.666667 0 0 1 1.897135,-7.032 14.6875,14.6875 0 0 1 -11.143757,-14.2343 14.6875,14.6875 0 0 1 14.6875,-14.68748 z m 0,7.34375 a 7.34375,7.34375 0 0 0 -7.34375,7.34373 7.34375,7.34375 0 0 0 7.34375,7.3438 7.34375,7.34375 0 0 0 7.34375,-7.3438 7.34375,7.34375 0 0 0 -7.34375,-7.34373 z m 24.368244,0 a 7.34375,7.34375 0 0 0 -7.34375,7.34373 7.34375,7.34375 0 0 0 7.34375,7.3438 7.34375,7.34375 0 0 0 7.34375,-7.3438 7.34375,7.34375 0 0 0 -7.34375,-7.34373 z m -47.430297,0.83191 a 36.229167,31.822917 0 0 0 -0.321289,1.2603 36.229167,31.822917 0 0 1 0.321289,-1.2603 z m -0.631104,3.04842 a 36.229167,31.822917 0 0 0 -0.18933,1.3731 36.229167,31.822917 0 0 1 0.18933,-1.3731 z m 72.045248,3.0695 a 36.229167,31.822917 0 0 1 0.0612,1.0728 36.229167,31.822917 0 0 0 -0.0612,-1.0728 z m -72.397136,1.0728 a 36.229167,31.822917 0 0 0 0.08989,1.5453 36.229167,31.822917 0 0 1 -0.08989,-1.5453 z m 72.278565,3.1269 a 36.229167,31.822917 0 0 1 -0.175944,1.0441 36.229167,31.822917 0 0 0 0.175944,-1.0441 z m -72.054809,0.2715 a 36.229167,31.822917 0 0 0 0.183593,1.0538 36.229167,31.822917 0 0 1 -0.183593,-1.0538 z m 71.509765,2.9012 a 36.229167,31.822917 0 0 1 -0.143433,0.501 36.229167,31.822917 0 0 0 0.143433,-0.501 z m -70.930299,0.2658 a 36.229167,31.822917 0 0 0 0.233318,0.7956 36.229167,31.822917 0 0 1 -0.233318,-0.7956 z m 0.942831,3.1077 a 36.229167,31.822917 0 0 0 0.196981,0.4743 36.229167,31.822917 0 0 1 -0.196981,-0.4743 z m 26.227132,8.6117 c -1.23986,0 -2.302571,1.0647 -2.302571,2.3045 0,1.2399 1.062711,2.3026 2.302571,2.3026 l 16.511964,0 c 1.23986,0 2.302571,-1.0627 2.302571,-2.3026 0,-1.2398 -1.062711,-2.3045 -2.302571,-2.3045 l -16.511964,0 z" />
</svg>
